HIERARCHY
ROOT Root
{
  OFFSET 0.0 0.0 0.0
  CHANNELS 6 Xposition Yposition Zposition Zrotation Yrotation Xrotation
  JOINT Hips
  {
    OFFSET 0.0 100.0 0.0
    CHANNELS 6 Xposition Yposition Zposition Zrotation Yrotation Xrotation
    JOINT Spine1
    {
      OFFSET 5.003913 -0.037094 -0.013727
      CHANNELS 3 Zrotation Yrotation Xrotation
      JOINT Spine2
      {
        OFFSET 7.125363 -1e-06 0.0
        CHANNELS 3 Zrotation Yrotation Xrotation
        JOINT Chest
        {
          OFFSET 7.594027 1e-06 0.0
          CHANNELS 3 Zrotation Yrotation Xrotation
          JOINT Neck1
          {
            OFFSET 26.313086 -0.460272 -0.181672
            CHANNELS 3 Zrotation Yrotation Xrotation
            JOINT Neck2
            {
              OFFSET 8.045911 0.0 0.0
              CHANNELS 3 Zrotation Yrotation Xrotation
              JOINT Head
              {
                OFFSET 6.432774 0.0 0.0
                CHANNELS 3 Zrotation Yrotation Xrotation
                JOINT HeadEnd
                {
                  OFFSET 16.169773 0.06451 0.00362
                  CHANNELS 3 Zrotation Yrotation Xrotation
                }
                JOINT Jaw
                {
                  OFFSET 0.108741 3.12938 0.002639
                  CHANNELS 3 Zrotation Yrotation Xrotation
                }
                JOINT LeftEye
                {
                  OFFSET 4.45173 8.166359 3.206392
                  CHANNELS 3 Zrotation Yrotation Xrotation
                }
                JOINT RightEye
                {
                  OFFSET 4.436895 8.135758 -3.222429
                  CHANNELS 3 Zrotation Yrotation Xrotation
                }
              }
            }
          }
          JOINT LeftShoulder
          {
            OFFSET 23.218927 5.195579 1.621656
            CHANNELS 3 Zrotation Yrotation Xrotation
            JOINT LeftArm
            {
              OFFSET 15.902118 2e-06 -2e-06
              CHANNELS 3 Zrotation Yrotation Xrotation
              JOINT LeftForeArm
              {
                OFFSET 28.739307 0.0 -1e-06
                CHANNELS 3 Zrotation Yrotation Xrotation
                JOINT LeftHand
                {
                  OFFSET 27.093981 -4e-06 0.0
                  CHANNELS 3 Zrotation Yrotation Xrotation
                  JOINT LeftHandThumb1
                  {
                    OFFSET 2.276781 3.380274 0.83384
                    CHANNELS 3 Zrotation Yrotation Xrotation
                    JOINT LeftHandThumb2
                    {
                      OFFSET 4.705309 -1e-06 -1e-06
                      CHANNELS 3 Zrotation Yrotation Xrotation
                      JOINT LeftHandThumb3
                      {
                        OFFSET 2.798515 0.0 3e-06
                        CHANNELS 3 Zrotation Yrotation Xrotation
                        JOINT LeftHandThumbEnd
                        {
                          OFFSET 3.180793 4e-06 -4e-06
                          CHANNELS 3 Zrotation Yrotation Xrotation
                        }
                      }
                    }
                  }
                  JOINT LeftHandIndex1
                  {
                    OFFSET 3.247786 2.352677 0.137192
                    CHANNELS 3 Zrotation Yrotation Xrotation
                    JOINT LeftHandIndex2
                    {
                      OFFSET 6.367095 1e-06 0.0
                      CHANNELS 3 Zrotation Yrotation Xrotation
                      JOINT LeftHandIndex3
                      {
                        OFFSET 3.662364 0.0 0.0
                        CHANNELS 3 Zrotation Yrotation Xrotation
                        JOINT LeftHandIndex4
                        {
                          OFFSET 2.329242 4e-06 -4e-06
                          CHANNELS 3 Zrotation Yrotation Xrotation
                          JOINT LeftHandIndexEnd
                          {
                            OFFSET 2.767823 1e-06 0.0
                            CHANNELS 3 Zrotation Yrotation Xrotation
                          }
                        }
                      }
                    }
                  }
                  JOINT LeftHandMiddle1
                  {
                    OFFSET 3.163612 0.945023 -0.406112
                    CHANNELS 3 Zrotation Yrotation Xrotation
                    JOINT LeftHandMiddle2
                    {
                      OFFSET 6.276789 3e-06 0.0
                      CHANNELS 3 Zrotation Yrotation Xrotation
                      JOINT LeftHandMiddle3
                      {
                        OFFSET 4.35652 -1e-06 4e-06
                        CHANNELS 3 Zrotation Yrotation Xrotation
                        JOINT LeftHandMiddle4
                        {
                          OFFSET 2.996877 0.0 8e-06
                          CHANNELS 3 Zrotation Yrotation Xrotation
                          JOINT LeftHandMiddleEnd
                          {
                            OFFSET 2.323256 3e-06 -4e-06
                            CHANNELS 3 Zrotation Yrotation Xrotation
                          }
                        }
                      }
                    }
                  }
                  JOINT LeftHandRing1
                  {
                    OFFSET 2.882606 -0.309162 0.107445
                    CHANNELS 3 Zrotation Yrotation Xrotation
                    JOINT LeftHandRing2
                    {
                      OFFSET 6.033198 0.0 4e-06
                      CHANNELS 3 Zrotation Yrotation Xrotation
                      JOINT LeftHandRing3
                      {
                        OFFSET 4.350578 3e-06 0.0
                        CHANNELS 3 Zrotation Yrotation Xrotation
                        JOINT LeftHandRing4
                        {
                          OFFSET 2.651321 2e-06 -7e-06
                          CHANNELS 3 Zrotation Yrotation Xrotation
                          JOINT LeftHandRingEnd
                          {
                            OFFSET 1.937663 1e-06 -4e-06
                            CHANNELS 3 Zrotation Yrotation Xrotation
                          }
                        }
                      }
                    }
                  }
                  JOINT LeftHandPinky1
                  {
                    OFFSET 2.865315 -1.525436 0.575687
                    CHANNELS 3 Zrotation Yrotation Xrotation
                    JOINT LeftHandPinky2
                    {
                      OFFSET 5.54936 1e-06 -8e-06
                      CHANNELS 3 Zrotation Yrotation Xrotation
                      JOINT LeftHandPinky3
                      {
                        OFFSET 3.070974 0.0 -4e-06
                        CHANNELS 3 Zrotation Yrotation Xrotation
                        JOINT LeftHandPinky4
                        {
                          OFFSET 1.549672 1e-06 0.0
                          CHANNELS 3 Zrotation Yrotation Xrotation
                          JOINT LeftHandPinkyEnd
                          {
                            OFFSET 1.952123 0.0 0.0
                            CHANNELS 3 Zrotation Yrotation Xrotation
                          }
                        }
                      }
                    }
                  }
                }
              }
            }
          }
          JOINT RightShoulder
          {
            OFFSET 23.161716 5.296122 -1.380114
            CHANNELS 3 Zrotation Yrotation Xrotation
            JOINT RightArm
            {
              OFFSET -16.027195 -2e-06 1.1e-05
              CHANNELS 3 Zrotation Yrotation Xrotation
              JOINT RightForeArm
              {
                OFFSET -28.736639 4e-06 2e-06
                CHANNELS 3 Zrotation Yrotation Xrotation
                JOINT RightHand
                {
                  OFFSET -27.133619 6e-06 0.0
                  CHANNELS 3 Zrotation Yrotation Xrotation
                  JOINT RightHandThumb1
                  {
                    OFFSET -2.274328 -3.351035 -0.83067
                    CHANNELS 3 Zrotation Yrotation Xrotation
                    JOINT RightHandThumb2
                    {
                      OFFSET -4.703594 -3e-06 2e-06
                      CHANNELS 3 Zrotation Yrotation Xrotation
                      JOINT RightHandThumb3
                      {
                        OFFSET -2.794935 -4e-06 -3e-06
                        CHANNELS 3 Zrotation Yrotation Xrotation
                        JOINT RightHandThumbEnd
                        {
                          OFFSET -3.183852 4e-06 1e-06
                          CHANNELS 3 Zrotation Yrotation Xrotation
                        }
                      }
                    }
                  }
                  JOINT RightHandIndex1
                  {
                    OFFSET -3.253496 -2.33755 -0.127667
                    CHANNELS 3 Zrotation Yrotation Xrotation
                    JOINT RightHandIndex2
                    {
                      OFFSET -6.344434 0.0 0.0
                      CHANNELS 3 Zrotation Yrotation Xrotation
                      JOINT RightHandIndex3
                      {
                        OFFSET -3.654871 0.0 -8e-06
                        CHANNELS 3 Zrotation Yrotation Xrotation
                        JOINT RightHandIndex4
                        {
                          OFFSET -2.327586 -1e-06 0.0
                          CHANNELS 3 Zrotation Yrotation Xrotation
                          JOINT RightHandIndexEnd
                          {
                            OFFSET -2.770001 3e-06 8e-06
                            CHANNELS 3 Zrotation Yrotation Xrotation
                          }
                        }
                      }
                    }
                  }
                  JOINT RightHandMiddle1
                  {
                    OFFSET -3.168223 -0.944764 0.411762
                    CHANNELS 3 Zrotation Yrotation Xrotation
                    JOINT RightHandMiddle2
                    {
                      OFFSET -6.266691 -1e-06 -4e-06
                      CHANNELS 3 Zrotation Yrotation Xrotation
                      JOINT RightHandMiddle3
                      {
                        OFFSET -4.348901 0.0 0.0
                        CHANNELS 3 Zrotation Yrotation Xrotation
                        JOINT RightHandMiddle4
                        {
                          OFFSET -3.00024 2e-06 -4e-06
                          CHANNELS 3 Zrotation Yrotation Xrotation
                          JOINT RightHandMiddleEnd
                          {
                            OFFSET -2.321477 -4e-06 -4e-06
                            CHANNELS 3 Zrotation Yrotation Xrotation
                          }
                        }
                      }
                    }
                  }
                  JOINT RightHandRing1
                  {
                    OFFSET -2.885654 0.293261 -0.119232
                    CHANNELS 3 Zrotation Yrotation Xrotation
                    JOINT RightHandRing2
                    {
                      OFFSET -6.032835 -1e-06 -4e-06
                      CHANNELS 3 Zrotation Yrotation Xrotation
                      JOINT RightHandRing3
                      {
                        OFFSET -4.33881 0.0 -4e-06
                        CHANNELS 3 Zrotation Yrotation Xrotation
                        JOINT RightHandRing4
                        {
                          OFFSET -2.654903 -4e-06 -4e-06
                          CHANNELS 3 Zrotation Yrotation Xrotation
                          JOINT RightHandRingEnd
                          {
                            OFFSET -1.935122 0.0 4e-06
                            CHANNELS 3 Zrotation Yrotation Xrotation
                          }
                        }
                      }
                    }
                  }
                  JOINT RightHandPinky1
                  {
                    OFFSET -2.866241 1.503904 -0.60527
                    CHANNELS 3 Zrotation Yrotation Xrotation
                    JOINT RightHandPinky2
                    {
                      OFFSET -5.553177 -2e-06 0.0
                      CHANNELS 3 Zrotation Yrotation Xrotation
                      JOINT RightHandPinky3
                      {
                        OFFSET -3.062664 -1e-06 -4e-06
                        CHANNELS 3 Zrotation Yrotation Xrotation
                        JOINT RightHandPinky4
                        {
                          OFFSET -1.546529 2e-06 4e-06
                          CHANNELS 3 Zrotation Yrotation Xrotation
                          JOINT RightHandPinkyEnd
                          {
                            OFFSET -1.952341 0.0 -4e-06
                            CHANNELS 3 Zrotation Yrotation Xrotation
                          }
                        }
                      }
                    }
                  }
                }
              }
            }
          }
        }
      }
    }
    JOINT LeftLeg
    {
      OFFSET -8.443107 2.567604 10.043214
      CHANNELS 3 Zrotation Yrotation Xrotation
      JOINT LeftShin
      {
        OFFSET 43.229198 1e-06 -1e-06
        CHANNELS 3 Zrotation Yrotation Xrotation
        JOINT LeftFoot
        {
          OFFSET 42.298611 1e-06 1e-06
          CHANNELS 3 Zrotation Yrotation Xrotation
          JOINT LeftToeBase
          {
            OFFSET 14.165858 1e-06 0.0
            CHANNELS 3 Zrotation Yrotation Xrotation
            JOINT LeftToeEnd
            {
              OFFSET 6.7141 -0.234461 0.0
              CHANNELS 3 Zrotation Yrotation Xrotation
            }
          }
        }
      }
    }
    JOINT RightLeg
    {
      OFFSET -8.303923 2.592729 -10.047278
      CHANNELS 3 Zrotation Yrotation Xrotation
      JOINT RightShin
      {
        OFFSET -43.369682 0.0 1e-06
        CHANNELS 3 Zrotation Yrotation Xrotation
        JOINT RightFoot
        {
          OFFSET -42.260784 4e-06 2e-06
          CHANNELS 3 Zrotation Yrotation Xrotation
          JOINT RightToeBase
          {
            OFFSET -14.222245 -2e-06 -1e-06
            CHANNELS 3 Zrotation Yrotation Xrotation
            JOINT RightToeEnd
            {
              OFFSET -6.660062 0.232574 -2e-06
              CHANNELS 3 Zrotation Yrotation Xrotation
            }
          }
        }
      }
    }
  }
}
MOTION
Frames: 4
Frame Time: 0.03333333333333333
0.0 0.0 0.0 0.0 -0.0 0.0 -11.993948 47.421032 156.728424 83.509407 -50.514057 97.775757 10.716742 1.898542 -0.687812 -4.547964 0.09526 -1.997399 27.829607 5.305752 -1.740062 20.212288 -4.792626 2.847815 -2.667951 -0.935237 0.85935 -33.95623 -0.583343 0.932201 7e-06 -0.0 0.0 -0.148835 -0.115179 0.08539 -0.095428 -0.183524 0.156115 -0.083626 -0.054398 0.025844 -18.040182 -70.531403 23.446093 84.176552 -0.565653 -36.947472 12.168594 0.132781 0.077941 23.586124 66.068893 23.175732 17.636625 -26.322737 52.411198 -19.46666 -14.395598 29.410393 0.0 -8.774821 -1e-06 16.581043 -18.290443 5.573434 -0.609776 -1.795654 -3.889328 -4.807089 -11.046813 -2.93785 3e-06 -20.976021 1e-06 -5.01997 -25.03356 -4.031882 6e-06 -0.0 -1e-06 -10.634535 -5.68697 -3.565587 10.573272 -17.922958 -3.113901 2e-06 -13.821213 1e-06 -0.501778 -31.181511 -4.027017 -11.251401 -59.10173 6.914059 -13.982713 -7.150198 -2.875041 13.772731 -8.401494 -3.218241 0.347732 -34.211559 0.771655 -0.963029 -17.733372 2.62102 -0.0 0.0 0.0 -17.346418 -20.095221 -4.201779 21.757559 -1.638374 3.866427 1e-06 -6.338824 1e-06 -1.69759 -22.591755 -6.194008 0.0 -7e-06 -2e-06 -160.415619 -83.276985 -8.956045 87.20433 -18.237597 -25.794016 23.006353 0.258705 0.222099 28.498829 79.246948 38.188595 22.182119 -20.375895 49.933308 -16.701809 -16.743528 28.476526 -2e-06 -12.690601 -2e-06 16.580259 -17.824749 2.185015 -0.105922 -1.513855 -4.275881 -5.039039 -5.612874 -2.953556 4e-06 -11.020519 -1e-06 -6.1113 -15.89533 -3.840472 -1e-06 1e-06 0.0 -10.283371 -5.68029 -4.341839 11.02829 -11.302406 -2.372629 -1.38427 -14.238583 -6.320119 -0.625441 -26.924187 -3.8276 -3.891204 -48.914913 -4.57229 -13.708524 -7.363477 -3.720941 18.141148 -14.052739 -3.242672 4e-06 -18.787271 -2e-06 -0.429712 -8.456045 2.555504 0.0 1e-06 1e-06 -15.923536 -20.094482 -5.473585 30.41921 -7.190824 1.735929 1e-06 -8.162927 1e-06 -1.861902 -22.861469 -6.167944 -0.0 -4e-06 -1e-06 156.69838 -7.109573 4.25834 80.37645 -2.240882 0.191101 -85.939491 5.205011 22.797485 -53.225552 1.81037 1.189988 -1.0 -0.0 -0.0 -60.998215 -3.774745 7.012003 125.913231 0.155345 0.299803 -100.704483 8.851742 11.281245 -48.394127 1.138589 1.432878 -1.000003 0.0 -0.0 
0.0 0.0 0.0 0.0 -0.0 0.0 -12.242803 47.420834 157.778549 83.151627 -51.274151 97.826752 10.584556 1.833291 -0.698377 -4.601174 0.029328 -1.884267 27.376982 5.242134 -1.596519 19.578976 -4.665723 2.874976 -2.67874 -0.816121 0.728334 -34.256855 -0.486239 0.785727 7e-06 -0.0 -0.0 -0.16015 -0.134142 0.095691 -0.041445 -0.203992 0.178269 -0.029664 -0.073875 0.02728 -18.698658 -69.907204 23.88895 84.891228 -1.581412 -36.454826 12.163802 0.078127 0.052038 25.416458 67.814644 24.756247 17.636633 -26.322737 52.411213 -19.466663 -14.395597 29.410395 -0.0 -8.774821 -2e-06 16.447451 -18.168596 5.632366 -0.609777 -1.795657 -3.889328 -4.807088 -11.046808 -2.937853 5e-06 -20.976021 -0.0 -5.019969 -25.033556 -4.031882 6e-06 -0.0 1e-06 -10.634535 -5.68697 -3.565589 10.573275 -17.922955 -3.113903 4e-06 -13.821211 0.0 -0.501774 -31.181505 -4.027017 -11.19444 -58.999012 6.896613 -13.982714 -7.150198 -2.875044 13.772731 -8.401494 -3.21824 0.347736 -34.211555 0.771653 -0.963028 -17.73337 2.621021 -0.0 -0.0 0.0 -17.346418 -20.095221 -4.201785 21.757557 -1.638375 3.86643 1e-06 -6.338825 1e-06 -1.697586 -22.591745 -6.194008 -1e-06 -6e-06 -3e-06 -160.442154 -83.273781 -8.807123 86.398537 -19.269848 -25.964979 26.157171 0.502678 0.210976 30.951088 78.841019 42.294548 22.182114 -20.375898 49.933319 -16.701807 -16.743525 28.476528 -2e-06 -12.690598 -2e-06 16.693695 -17.898914 2.113991 -0.105921 -1.513856 -4.275881 -5.039041 -5.612872 -2.953557 3e-06 -11.02052 -2e-06 -6.111299 -15.89533 -3.84047 0.0 1e-06 -1e-06 -10.283367 -5.680289 -4.341839 11.028291 -11.302406 -2.372633 -1.384269 -14.238581 -6.320121 -0.625438 -26.924187 -3.827606 -3.87337 -49.004807 -4.561306 -13.708523 -7.363476 -3.72094 18.141142 -14.052739 -3.242673 4e-06 -18.78727 -3e-06 -0.429712 -8.456041 2.555501 -0.0 0.0 1e-06 -15.923534 -20.094482 -5.473585 30.419205 -7.190823 1.735927 1e-06 -8.162927 -0.0 -1.861902 -22.861469 -6.167942 -1e-06 -3e-06 -1e-06 157.109634 -7.646033 3.92696 78.35379 -2.274952 0.309892 -84.235886 5.281789 23.1075 -52.703079 1.806925 1.215245 -0.999998 -1e-06 -0.0 -60.65464 -3.048886 6.579788 124.603439 0.245708 0.350558 -98.96077 8.736564 11.97381 -48.446198 1.110027 1.395746 -1.000004 0.0 1e-06 
0.0 0.0 0.0 0.0 -0.0 0.0 -12.576347 47.525398 158.793671 83.117416 -51.993458 98.344582 10.38925 1.782157 -0.846535 -4.747975 -0.223015 -1.998091 27.093571 5.107281 -1.743596 18.931845 -4.172126 2.945202 -2.718738 -0.488721 0.580837 -34.313267 -0.492944 0.605568 4e-06 -0.0 0.0 -0.184552 -0.052079 0.060857 -0.048843 -0.116889 0.141501 -0.046657 0.003675 0.000791 -17.883507 -69.405457 22.915781 85.231148 -2.263485 -35.849358 11.711582 -0.057862 0.039362 26.812937 68.993034 25.769619 17.636625 -26.322733 52.411205 -19.46666 -14.395596 29.410395 0.0 -8.774821 -1e-06 16.353275 -18.090506 5.727823 -0.609777 -1.795654 -3.889327 -4.807089 -11.046809 -2.937851 6e-06 -20.976015 -1e-06 -5.019969 -25.033552 -4.031883 6e-06 -1e-06 -0.0 -10.634535 -5.686971 -3.56559 10.573272 -17.922953 -3.113901 3e-06 -13.821206 1e-06 -0.501774 -31.181498 -4.027017 -10.915849 -58.967701 6.819433 -13.982714 -7.150197 -2.875044 13.772731 -8.401494 -3.218243 0.347736 -34.211544 0.771652 -0.963028 -17.73337 2.62102 -1e-06 -0.0 0.0 -17.346416 -20.095217 -4.201784 21.757557 -1.638376 3.866428 1e-06 -6.338825 0.0 -1.697589 -22.591747 -6.194009 0.0 -6e-06 -1e-06 -164.311691 -83.665222 -4.745154 85.588196 -19.90976 -27.215174 30.700621 0.496449 0.118268 37.84185 77.602402 51.669533 22.182114 -20.375893 49.933323 -16.701813 -16.74353 28.476532 -3e-06 -12.6906 -1e-06 16.870136 -18.014072 2.064217 -0.105919 -1.513857 -4.275881 -5.039041 -5.61287 -2.953556 4e-06 -11.020523 -3e-06 -6.111298 -15.89533 -3.840471 -1e-06 -1e-06 -2e-06 -10.283371 -5.680289 -4.341838 11.028292 -11.302404 -2.372634 -1.384268 -14.238579 -6.320121 -0.625435 -26.924179 -3.827605 -3.902955 -49.340149 -4.544602 -13.708524 -7.363474 -3.72094 18.14115 -14.052736 -3.242675 7e-06 -18.787268 -2e-06 -0.429712 -8.456043 2.555504 0.0 0.0 1e-06 -15.923536 -20.094482 -5.473586 30.41921 -7.190826 1.735927 2e-06 -8.162925 1e-06 -1.861903 -22.861465 -6.167941 -1e-06 -4e-06 -2e-06 156.826508 -7.735416 3.963289 76.817986 -2.530893 0.35425 -82.179245 5.564451 23.603998 -50.995758 1.79024 1.250609 -0.999999 -1e-06 -0.0 -60.226444 -3.0541 5.961222 123.258896 0.335519 0.388318 -97.069626 8.864635 12.631639 -47.934105 1.079748 1.381743 -1.000004 0.0 1e-06 
0.0 0.0 0.0 0.0 -0.0 0.0 -13.023132 47.653816 159.590698 83.515144 -52.527069 99.042351 10.269754 1.568492 -0.987567 -4.852141 -0.452588 -2.293317 26.826841 4.735721 -2.241488 18.51375 -2.955603 3.105117 -2.706843 -0.614448 0.307219 -34.207787 -0.557683 0.319181 7e-06 -0.0 0.0 -0.195198 -0.059525 0.058795 0.0178 -0.127953 0.148275 -0.000123 0.003421 -0.009936 -15.891182 -69.019318 20.800356 85.163933 -2.733748 -34.871109 11.050332 -0.300883 0.010322 27.483301 69.787209 25.861229 17.636625 -26.322729 52.411182 -19.46666 -14.395597 29.410381 0.0 -8.77482 -1e-06 16.193474 -18.033792 5.795287 -0.609776 -1.795654 -3.889327 -4.807088 -11.046813 -2.93785 4e-06 -20.976019 0.0 -5.01997 -25.03356 -4.03188 6e-06 0.0 -1e-06 -10.634532 -5.686972 -3.565585 10.573272 -17.922951 -3.113901 3e-06 -13.821206 1e-06 -0.501778 -31.181505 -4.027014 -11.037955 -58.923607 7.053321 -13.982712 -7.150198 -2.87504 13.77273 -8.401495 -3.218241 0.347734 -34.211555 0.771654 -0.963028 -17.73337 2.621019 -0.0 -0.0 -0.0 -17.346418 -20.095215 -4.201777 21.757555 -1.638376 3.866426 2e-06 -6.338824 0.0 -1.697588 -22.591738 -6.194005 -0.0 -6e-06 -3e-06 -174.686539 -84.089943 5.703151 85.021584 -20.203951 -29.197067 37.345394 0.628608 -0.054866 47.344387 75.669136 64.065804 22.182116 -20.375893 49.933319 -16.701811 -16.743526 28.476528 -2e-06 -12.690604 -2e-06 17.33164 -18.19557 1.884648 -0.10592 -1.513856 -4.275881 -5.03904 -5.612872 -2.953557 3e-06 -11.020523 -2e-06 -6.111298 -15.895332 -3.840472 -0.0 0.0 -2e-06 -10.283369 -5.680288 -4.341836 11.028296 -11.302404 -2.372634 -1.38427 -14.238585 -6.320121 -0.625439 -26.924191 -3.827602 -3.997221 -49.658775 -4.687598 -13.708525 -7.363478 -3.720938 18.141148 -14.052739 -3.242675 4e-06 -18.787271 -3e-06 -0.429711 -8.456045 2.555504 -1e-06 0.0 1e-06 -15.923536 -20.094484 -5.473582 30.419218 -7.190824 1.735926 1e-06 -8.162926 1e-06 -1.861904 -22.861483 -6.167943 -1e-06 -5e-06 -1e-06 156.016312 -7.556247 4.263639 76.485031 -2.769213 0.438777 -79.621742 6.496602 23.276207 -47.74757 1.816832 1.313125 -0.999997 -1e-06 -2e-06 -59.828815 -3.487957 5.300548 122.115189 0.374198 0.357657 -94.441422 9.244395 13.698771 -47.754795 1.081011 1.391121 -1.000003 -1e-06 -0.0 
